HIERARCHY
ROOT Hips
{
	OFFSET -14.64140 90.27770 -84.91600
	CHANNELS 6 Xposition Yposition Zposition Zrotation Xrotation Yrotation
	JOINT Spine
	{
		OFFSET 0.00000 13.20850 -1.60436
		CHANNELS 3 Zrotation Xrotation Yrotation
		JOINT Spine1
		{
			OFFSET 0.00000 8.61716 0.00000
			CHANNELS 3 Zrotation Xrotation Yrotation
			JOINT Spine2
			{
				OFFSET 0.00000 8.61717 0.00000
				CHANNELS 3 Zrotation Xrotation Yrotation
				JOINT Spine3
				{
					OFFSET 0.00000 8.61717 0.00000
					CHANNELS 3 Zrotation Xrotation Yrotation
					JOINT Neck
					{
						OFFSET 0.00000 11.07920 1.10792
						CHANNELS 3 Zrotation Xrotation Yrotation
						JOINT Neck1
						{
							OFFSET 0.00000 7.08032 0.00000
							CHANNELS 3 Zrotation Xrotation Yrotation
							JOINT Head
							{
								OFFSET 0.00000 7.08031 0.00000
								CHANNELS 3 Zrotation Xrotation Yrotation
								End site
								{
									OFFSET 0.00000 0.00000 0.00000
								}
							}
						}
					}
					JOINT RightShoulder
					{
						OFFSET -0.01000 7.91373 5.19711
						CHANNELS 3 Zrotation Xrotation Yrotation
						JOINT RightArm
						{
							OFFSET -18.41580 0.00000 0.00000
							CHANNELS 3 Zrotation Xrotation Yrotation
							JOINT RightForeArm
							{
								OFFSET -29.11090 0.00000 0.00000
								CHANNELS 3 Zrotation Xrotation Yrotation
								JOINT RightHand
								{
									OFFSET -24.65040 0.00000 0.00000
									CHANNELS 3 Zrotation Xrotation Yrotation
									JOINT RightHandThumb1
									{
										OFFSET -5.35114 -0.85590 3.97906
										CHANNELS 3 Zrotation Xrotation Yrotation
										JOINT RightHandThumb2
										{
											OFFSET -4.52789 0.00000 0.00000
											CHANNELS 3 Zrotation Xrotation Yrotation
											JOINT RightHandThumb3
											{
												OFFSET -2.46976 0.00000 0.00000
												CHANNELS 3 Zrotation Xrotation Yrotation
												End site
												{
													OFFSET 0.00000 0.00000 0.00000
												}
											}
										}
									}
									JOINT RightHandIndex1
									{
										OFFSET -14.26970 0.00000 2.88139
										CHANNELS 3 Zrotation Xrotation Yrotation
										JOINT RightHandIndex2
										{
											OFFSET -5.48836 0.00000 0.00000
											CHANNELS 3 Zrotation Xrotation Yrotation
											JOINT RightHandIndex3
											{
												OFFSET -3.01859 0.00000 0.00000
												CHANNELS 3 Zrotation Xrotation Yrotation
												End site
												{
													OFFSET 0.00000 0.00000 0.00000
												}
											}
										}
									}
									JOINT RightHandMiddle1
									{
										OFFSET -14.26970 0.00000 -0.09147
										CHANNELS 3 Zrotation Xrotation Yrotation
										JOINT RightHandMiddle2
										{
											OFFSET -6.17441 0.00000 0.00000
											CHANNELS 3 Zrotation Xrotation Yrotation
											JOINT RightHandMiddle3
											{
												OFFSET -3.56743 0.00000 0.00000
												CHANNELS 3 Zrotation Xrotation Yrotation
												End site
												{
													OFFSET 0.00000 0.00000 0.00000
												}
											}
										}
									}
									JOINT RightHandRing1
									{
										OFFSET -12.69180 0.00000 -3.06433
										CHANNELS 3 Zrotation Xrotation Yrotation
										JOINT RightHandRing2
										{
											OFFSET -5.62556 0.00000 0.00000
											CHANNELS 3 Zrotation Xrotation Yrotation
											JOINT RightHandRing3
											{
												OFFSET -3.56744 0.00000 0.00000
												CHANNELS 3 Zrotation Xrotation Yrotation
												End site
												{
													OFFSET 0.00000 0.00000 0.00000
												}
											}
										}
									}
									JOINT RightHandPinky1
									{
										OFFSET -11.11390 0.00000 -6.03719
										CHANNELS 3 Zrotation Xrotation Yrotation
										JOINT RightHandPinky2
										{
											OFFSET -4.52789 0.00000 0.00000
											CHANNELS 3 Zrotation Xrotation Yrotation
											JOINT RightHandPinky3
											{
												OFFSET -2.46976 0.00000 0.00000
												CHANNELS 3 Zrotation Xrotation Yrotation
												End site
												{
													OFFSET 0.00000 0.00000 0.00000
												}
											}
										}
									}
								}
							}
						}
					}
					JOINT LeftShoulder
					{
						OFFSET 0.01000 7.91373 5.19711
						CHANNELS 3 Zrotation Xrotation Yrotation
						JOINT LeftArm
						{
							OFFSET 18.41580 0.00000 0.00000
							CHANNELS 3 Zrotation Xrotation Yrotation
							JOINT LeftForeArm
							{
								OFFSET 29.11090 0.00000 0.00000
								CHANNELS 3 Zrotation Xrotation Yrotation
								JOINT LeftHand
								{
									OFFSET 24.65040 0.00000 0.00000
									CHANNELS 3 Zrotation Xrotation Yrotation
									JOINT LeftHandThumb1
									{
										OFFSET 5.35114 -0.85590 3.97906
										CHANNELS 3 Zrotation Xrotation Yrotation
										JOINT LeftHandThumb2
										{
											OFFSET 4.52789 0.00000 0.00000
											CHANNELS 3 Zrotation Xrotation Yrotation
											JOINT LeftHandThumb3
											{
												OFFSET 2.46977 0.00000 0.00000
												CHANNELS 3 Zrotation Xrotation Yrotation
												End site
												{
													OFFSET 0.00000 0.00000 0.00000
												}
											}
										}
									}
									JOINT LeftHandIndex1
									{
										OFFSET 14.26970 0.00000 2.88139
										CHANNELS 3 Zrotation Xrotation Yrotation
										JOINT LeftHandIndex2
										{
											OFFSET 5.48836 0.00000 0.00000
											CHANNELS 3 Zrotation Xrotation Yrotation
											JOINT LeftHandIndex3
											{
												OFFSET 3.01859 0.00000 0.00000
												CHANNELS 3 Zrotation Xrotation Yrotation
												End site
												{
													OFFSET 0.00000 0.00000 0.00000
												}
											}
										}
									}
									JOINT LeftHandMiddle1
									{
										OFFSET 14.26970 0.00000 -0.09147
										CHANNELS 3 Zrotation Xrotation Yrotation
										JOINT LeftHandMiddle2
										{
											OFFSET 6.17440 0.00000 0.00000
											CHANNELS 3 Zrotation Xrotation Yrotation
											JOINT LeftHandMiddle3
											{
												OFFSET 3.56744 0.00000 0.00000
												CHANNELS 3 Zrotation Xrotation Yrotation
												End site
												{
													OFFSET 0.00000 0.00000 0.00000
												}
											}
										}
									}
									JOINT LeftHandRing1
									{
										OFFSET 12.69180 0.00000 -3.06433
										CHANNELS 3 Zrotation Xrotation Yrotation
										JOINT LeftHandRing2
										{
											OFFSET 5.62556 0.00000 0.00000
											CHANNELS 3 Zrotation Xrotation Yrotation
											JOINT LeftHandRing3
											{
												OFFSET 3.56744 0.00000 0.00000
												CHANNELS 3 Zrotation Xrotation Yrotation
												End site
												{
													OFFSET 0.00000 0.00000 0.00000
												}
											}
										}
									}
									JOINT LeftHandPinky1
									{
										OFFSET 11.11390 0.00000 -6.03719
										CHANNELS 3 Zrotation Xrotation Yrotation
										JOINT LeftHandPinky2
										{
											OFFSET 4.52789 0.00000 0.00000
											CHANNELS 3 Zrotation Xrotation Yrotation
											JOINT LeftHandPinky3
											{
												OFFSET 2.46976 0.00000 0.00000
												CHANNELS 3 Zrotation Xrotation Yrotation
												End site
												{
													OFFSET 0.00000 0.00000 0.00000
												}
											}
										}
									}
								}
							}
						}
					}
					JOINT pCube4
					{
						OFFSET 0.00000 10.91090 1.10792
						CHANNELS 3 Zrotation Xrotation Yrotation
						End site
						{
							OFFSET 0.00000 0.00000 0.00000
						}
					}
				}
			}
		}
	}
	JOINT RightUpLeg
	{
		OFFSET -9.98441 0.00000 0.00000
		CHANNELS 3 Zrotation Xrotation Yrotation
		JOINT RightLeg
		{
			OFFSET 0.00000 -42.11790 0.00000
			CHANNELS 3 Zrotation Xrotation Yrotation
			JOINT RightFoot
			{
				OFFSET 0.00000 -45.00020 -0.00001
				CHANNELS 3 Zrotation Xrotation Yrotation
				JOINT RightForeFoot
				{
					OFFSET 0.00000 -3.74820 0.00000
					CHANNELS 3 Zrotation Xrotation Yrotation
					JOINT RightToeBase
					{
						OFFSET 0.00000 0.06325 14.43120
						CHANNELS 3 Zrotation Xrotation Yrotation
						End site
						{
							OFFSET 0.00000 0.00000 0.00000
						}
					}
				}
			}
		}
	}
	JOINT LeftUpLeg
	{
		OFFSET 9.98441 0.00000 0.00000
		CHANNELS 3 Zrotation Xrotation Yrotation
		JOINT LeftLeg
		{
			OFFSET 0.00000 -42.11800 0.00000
			CHANNELS 3 Zrotation Xrotation Yrotation
			JOINT LeftFoot
			{
				OFFSET 0.00000 -45.00070 0.00000
				CHANNELS 3 Zrotation Xrotation Yrotation
				JOINT LeftForeFoot
				{
					OFFSET 0.00000 -3.74824 0.00000
					CHANNELS 3 Zrotation Xrotation Yrotation
					JOINT LeftToeBase
					{
						OFFSET 0.00000 0.06325 14.43110
						CHANNELS 3 Zrotation Xrotation Yrotation
						End site
						{
							OFFSET 0.00000 0.00000 0.00000
						}
					}
				}
			}
		}
	}
}
MOTION
Frames: 4
Frame Time: 0.050000
-0.016728997643486787 0.014610719450611882 0.029255219330246003 0.024635958783107523 0.02183110929576347 0.027654273637258184 3.2482014586791608 2.3824320229180134 -1.858268944664502 -0.6097159110035372 3.638734344135916 0.3316018237462618 -0.6474357697785253 -1.5675797270800547 1.0673475364663259 -0.5173079412117839 -0.426825007687135 -0.32188625245933833 0.09136422354182797 13.45187982200559 -1.6282101796202317 0.3870073744150657 -0.004259372342303884 -4.2405567864194555 0.9398013073978456 -15.899857284733553 -0.41842856987110943 -7.825020897048296 2.8080832379654144 -16.462332036987046 76.15675151786067 15.313721977407456 10.525133672863207 1.4647598903164907 0.8465571959763815 89.55734143570805 21.245223021550768 -0.5002814943611334 -4.3743186620340735 4.495168968645614 -0.08418148530352523 -1.6082364468558163 -0.012906558236754658 0.001393523470513432 -56.230232090509695 0.012762339532908746 0.01612150572251756 -56.28106477180337 -38.796021965722495 0.015770412941117987 -0.028137810499680865 0.03516001500719492 0.029724657225705844 -0.002627595565332244 0.03872467857558922 0.01440889657468922 0.00018878500221677946 -36.654038330021585 0.01553098437150711 0.040574747332645586 0.0316147125410697 0.019361527965106873 -0.03864112575604434 0.00974404647337231 -0.002069366944017522 0.03254996599611261 -19.73189487679131 0.00848582962449337 -0.03258659623264333 -0.01406415981616837 -0.010001559810476242 0.023960203541714666 0.0018239597063047291 0.016703609040496892 0.009857140985501016 24.035607267843012 -0.010243132625061064 0.034715785163589 28.829323637810127 -0.006656216741374271 0.017309954155079837 28.8867570389589 0.020088900220215086 -0.04533892717864047 8.630286510599959 2.1208544566455974 14.649064208383239 -74.56446955907518 24.70092507840291 -11.358057077553033 -16.57603115812734 3.312155957405603 -83.90212151822958 -23.40138157070087 -2.6858607174497875 1.6265292817278336 -0.4938808159020999 0.03638855107172719 -8.104841176248819 -0.0009093421029477152 -0.004261496185100394 44.58586439861484 0.01843112516491802 0.011980184388356584 44.6066412708391 12.43969696185326 0.0031390749166195116 0.03710702383426042 -0.03638913195175075 0.04339892589123401 -0.018983139393458335 0.01837148507509747 0.03250692851127501 0.026965450368293172 11.151882840059487 -0.011726449777272531 0.013738468701361554 0.04033351982438126 -0.010460699289482452 -0.02493050909221209 0.004665188020287037 0.002142689479939806 -0.04799861876606158 4.761030413856014 -0.008443595413052925 -0.0199411757946398 0.01711401785695615 -0.031106911922903796 0.011821923643556493 -0.005297030908323953 -0.01892073336098351 -0.03464272547509624 -5.644164065368958 -0.020534982716087804 -0.045683297770206355 -6.699623356756574 0.03238738096867509 -0.04683447252935606 -6.685671920318091 0.028813587436776315 0.0164505622186419 0.023197277044921957 0.024970486736150314 -0.03962667435116152 7.998590406490162 3.4897148530104443 -19.19330196374677 0.013682442778235585 10.369116903932648 -0.014522815970422022 -5.571072923041402 -15.649037727816626 3.1884571322503237 -0.01280515343339562 -0.04361951910355472 -0.017863018773156547 0.02002826444415591 4.661287871873383 -0.008606287048190527 12.447865392977556 -8.27221615381632 6.903219786687105 0.00891128826830168 46.34104712543915 0.022191317561764012 -4.361502789097055 -14.699352510769183 -3.809901021169246 0.002978494281977524 -0.02052824728663976 -0.009512403934844068 0.04812706408351457 -10.753497348710892 0.02009913526842443 
-0.008985631144481691 -0.007642896057182991 0.015171328945793578 0.009793152003814707 0.005339833281162269 -0.014324574576713761 3.6592388853893643 2.388497434449321 -1.8675805345092855 -0.6289036297894113 3.660415518840843 0.33528528794225354 -0.6411355917979091 -1.4866868478511532 0.9632471010043377 -0.5466755213743202 -0.3853139565583558 -0.26687519782730185 0.14842609586319813 13.65906283352181 -1.5063288395138386 0.36320117236280114 0.19188764067065955 -3.8505098036628906 0.926436185708265 -15.701222910631595 -0.3247327114091736 -8.38091621990863 2.999958744155562 -16.747934865583424 76.74402728794706 17.088492167391824 9.491704298638757 -0.5925715852231389 0.3067590875293948 87.76969755745846 21.09181584663887 -0.5418989257403444 -4.656281251028008 4.509100948681785 -0.14539122224310325 -1.5742079889481868 -0.04478676183593619 0.0031139807498118317 -56.230177273124 0.013148104672983716 -0.019818024165630447 -56.23247758898622 -38.80114823168457 -0.01882788343860117 0.026820966790798876 0.039212835593082154 -0.01907393191968469 0.030699967813103055 -0.03361043153656391 -0.037860410744924286 -0.04694298741229373 -36.71024829742507 0.004688159448374439 -0.009532604558176897 0.006615528817809839 0.0250033538371132 -0.021031279736704378 0.002652223428877969 -0.007944289889656833 -0.03183814117449235 -19.75573630522405 0.006440726804362192 -0.025480218153020043 0.03523476304644632 0.026171214163640592 -0.00810785901137728 0.028141159453242737 -0.013839912589482986 -0.02252065442648932 24.07877430021415 -0.0457476132957556 -0.031225915521624747 28.89782198928683 -0.028287841053428794 0.023172507136086984 28.822616318151834 -0.016688438083703697 -0.02691781682740313 9.20837129534645 2.269076240631327 14.778236053697997 -74.36438417450707 25.71726967078078 -11.701968929352 -15.51861389517833 2.6473397955583757 -83.37720842646132 -23.26940004948713 -3.7199047264786054 2.363960623996976 -0.48356104981183184 0.02019278701544417 -8.150179643255273 0.009069973849993467 -0.04388865604260081 44.5213583029492 -0.017901283118186215 -0.03201552950381847 44.61277370819278 12.483250767624519 0.023871788850556713 0.04095991489540087 -0.02614873623847647 0.022452251826893838 0.012596843601603108 -0.04658417354764862 0.012520919268683088 0.03002519675491503 11.11775214944118 -0.010523040201182882 0.00319182187709439 -0.009240484570065386 -0.04542260942890068 -0.042848646828178245 -0.03229391253460232 -0.02186003008143974 -0.040646655978158024 4.743481928488567 0.010229514220906491 0.04260891466390358 0.02585918784040062 0.031538495591781034 -0.014024952647652552 0.04130426568348271 -0.019409315953381797 0.01736902101528506 -5.637367340450365 -0.004685577131131651 -0.0036902725979415358 -6.688402807413581 0.015187822305343882 -0.025652498559167507 -6.752604540926475 -0.032558151896998906 -0.011229927926425307 -0.016187144198032775 0.002809196813135418 -0.01865232541113364 8.051577773839984 3.4845171223712117 -19.237280316050278 -0.014698773247041464 10.397495684146909 0.016109029307414542 -5.586433212972166 -15.674508683686948 3.2087477628553787 -0.04084875092600038 0.033624329895367414 0.009479864324681236 -0.04572791971404672 4.729477339354417 0.007696922305724496 12.432220709780971 -8.27397184802975 6.894514958223652 0.0016427667951551177 46.34400387888217 -0.03247509172082432 -4.3246820582396355 -14.705773153922147 -3.836973094546881 0.03140782495922519 -0.03618697011751113 -0.015532960645297883 0.00594679774364797 -10.724924844131479 -0.01401322802739371 
-0.04756204134900322 0.024165855967556056 0.012108293158136978 0.03491935818782455 0.03237040151629277 0.0171585036821197 4.018006891448654 2.380304675296358 -1.9819364827260828 -0.5945056321622636 3.7191554868573653 0.3507371821293443 -0.6682513625207634 -1.488518096497679 0.9054453588799962 -0.49864072566701345 -0.3042594928253152 -0.25986616841517335 0.05763681827101193 13.961089085097324 -1.305914342029319 0.36397084553465864 0.29995927207380013 -3.290117196786596 0.8369142250270118 -15.543518033372068 -0.24232959439286605 -8.704987672471269 3.0741063740063383 -16.954468740440284 77.23077507944325 18.80717131172667 8.928489881937738 -2.06011495573035 0.01370108495449942 86.59411790928095 21.04978855064245 -0.5423666549213326 -4.874434863640349 4.560406699685602 -0.08459972619664102 -1.6351318392017442 -0.019275549663909753 -0.020587711735161884 -56.2208601730358 0.01641152089275479 0.04834219836512643 -56.205615052605886 -38.758892671400545 -0.014301517280949375 -0.008482870388301622 -0.018756309415265432 0.0015474972209324356 -0.017802834349489944 -0.028120431646293523 0.02810883892648087 0.043427655179221314 -36.70065691981846 0.03713508680025474 -0.025478432762713117 0.026752067142639096 0.021208345487609994 0.01966129977139965 -0.003804155236471682 0.02577212885887797 -0.0487060294919543 -19.73288218248114 -0.032881461363759086 0.0272748146650725 0.011385908094310037 0.005583444803683872 0.0007268276288904394 -0.002158067024744055 0.021191477454138585 0.01883833507754611 24.017822961620766 -0.018608459005002 -0.02041279201075466 28.851700697106295 -0.04642367624789692 -0.004577215315286141 28.824944351514695 -0.01719863950826225 0.023580394678487958 9.65429279200935 2.2896023403034644 14.867241020156927 -74.05899712335928 26.516246394813777 -12.21423967281547 -14.81099338952977 2.5576996473039033 -83.27071494995208 -23.493278392287966 -4.763803026635689 3.1093724564569594 -0.5223005540460993 0.03401140487559263 -8.129933843466262 0.017745544583763574 -0.044792096990329336 44.533598685609824 -0.007373375941644591 -0.02066003653544295 44.52532306369966 12.446185230622195 -0.0256967499762186 -0.007910784251146712 -0.028800079349471888 -0.0018570025564068739 0.043649746301625054 -0.036468564187860875 0.015186604276481292 0.038684122210264134 11.093917688381252 0.01012236470817153 0.012221656278189533 -0.03375455194735603 -0.024817107536227657 0.02152961685842554 -0.03524338792849962 -0.011717550280846548 -0.002651129907356209 4.795691047750252 0.01155229274613805 0.007539146872473776 -0.006421505307085927 0.013571451725235197 -0.04018269026738916 0.001224082534669212 -0.042041474042558986 0.0037874707514285264 -5.571597912343083 -0.009097288633680397 -0.048424604295603316 -6.7363922574228345 -0.030070331816173582 -0.010913697272792323 -6.758932478840546 -0.024618449335089807 -0.039742628205037794 -0.028652210299298965 0.028558304808134368 0.014993037304963954 8.088504181512377 3.474055259136756 -19.26843047112049 -0.04778219645791481 10.356630029415292 -0.01574817657103572 -5.592498972270562 -15.619479988428235 3.174702674461494 -0.02123496507696114 0.04895387965026348 -0.029481942382099537 0.04874133097241635 4.720109343783666 -0.01653584068528427 12.503490928333202 -8.21235444724163 6.864413356341559 -0.028024514742071762 46.334910084056794 0.027001505215581603 -4.302685885729695 -14.757772538989498 -3.802877221367784 0.04472455227584786 -0.025092831576265597 0.009813459293859487 -0.007062252388414081 -10.719482231090131 -0.00739533053230578 
0.0013053633525023627 -0.010204951642442233 -0.0052647448804899796 -0.003363809536390048 0.037510078568342244 -0.03244924208920793 4.276860376028058 2.374400135366985 -2.0438761404913137 -0.6811503400050503 3.67136945393863 0.37627754685936143 -0.615337508434732 -1.5004567016812942 0.9290835944168766 -0.4949543839017272 -0.2373937233475525 -0.24233839954684594 -0.05306813344955551 14.118534107458775 -1.1224559880840546 0.36772647683530196 0.5209069079378981 -2.669387392608934 0.7227024836390409 -15.279472267276432 -0.18167664870935105 -9.011236221959155 3.118414996337266 -17.173264598509085 77.85716177380057 20.16724322483704 8.622124645375091 -3.273309940336024 0.07197893981429276 86.35951284862976 21.1410106992243 -0.5605646770370334 -5.198942493128174 4.484759103980972 -0.13952156570436602 -1.59129487460066 0.04495036511149738 0.015426632666845881 -56.21465116575339 0.03165957350661849 -0.011619976640317393 -56.20883759320463 -38.773088893392654 -0.03752388103518984 -0.02138745844971955 -0.0001692529662009004 0.03159420779551471 0.0325527551031935 0.00535024382026451 -0.010883120150494401 -0.04097916919258667 -36.66174913393305 0.027099908357304373 -0.013076248675199676 0.0064181733717579 -0.028453267803785785 0.0202184071183737 0.02046963772325968 0.04188897516747804 -0.02046651643383925 -19.745249410079687 -0.02121514176903749 -0.034524482021813074 0.037877796572121425 0.02067506145608932 0.029306271427560794 0.04178734705395113 -0.023907670908471717 -0.039422288372420504 24.09636089396629 -0.020195627797887136 -0.0035870391219163865 28.843452334928422 -0.018626236610925696 0.002787684570411817 28.869343305983353 -0.03697194655331996 -0.015736091591609606 10.15042711460683 2.3778086041330306 15.057816413019449 -73.93223396611202 26.849327718698294 -12.89908863780049 -14.934307065046612 2.8160203249737967 -83.95044280612173 -23.622178006034886 -5.817698276188733 3.9361940189293207 -0.5024064124866435 0.053210551864486824 -8.10883542067545 -0.012619007249509836 -0.0007351421823628969 44.55002679521575 -0.04629115367682673 0.016719691490025196 44.53586965056278 12.47763850908252 -0.005967120886649497 0.03717119956940282 -0.01039147221774613 0.02990670307786447 -0.010428518319335714 -0.02495907156640507 0.01233917795598602 -0.03782795960350823 11.133367355202894 -0.0408498291577338 0.04283939999119061 0.04838272735693253 -0.011459242461350152 -0.02415825969081564 -0.013391223133596253 0.015163977739449873 0.037790416298063664 4.792559887535436 0.0002563131006579594 -0.04994561385006723 -0.03165375616828407 0.048355228128885874 0.0332745542740517 0.02704989307422988 0.009083214510658855 0.013946180734930681 -5.650101998279186 0.019690154051200677 0.005960651632737571 -6.733707425039727 -0.004221418033257405 0.02049600532847511 -6.702682491314454 -0.017125255487226453 0.040301726081341006 0.044691580454608526 -0.01239189996176532 0.04122712743847354 8.008858874467919 3.478390277587255 -19.19031685689633 -0.03819671012065513 10.347214650473461 -0.0006289264925473156 -5.6532642872108205 -15.670643350469843 3.2039694719832306 -0.04203454391211936 -0.006207060247496916 0.028178600384202224 -0.004981275850448645 4.741326296442609 -0.0031374435473916435 12.458467163864565 -8.239283896969303 6.925031801296139 -0.024637239260007684 46.34518165545099 -0.030672881462037123 -4.327092805481432 -14.713412080335628 -3.804849413858974 0.03645906989627703 0.021479231773238253 0.04473048526535895 0.0469102810300621 -10.79444486952451 -0.014147596553579972 
